<?xml version="1.0" encoding="UTF-8" standalone="no"?>
<!-- Created with Inkscape (http://www.inkscape.org/) -->

<svg
   xmlns:dc="http://purl.org/dc/elements/1.1/"
   xmlns:cc="http://creativecommons.org/ns#"
   xmlns:rdf="http://www.w3.org/1999/02/22-rdf-syntax-ns#"
   xmlns:svg="http://www.w3.org/2000/svg"
   xmlns="http://www.w3.org/2000/svg"
   xmlns:sodipodi="http://sodipodi.sourceforge.net/DTD/sodipodi-0.dtd"
   xmlns:inkscape="http://www.inkscape.org/namespaces/inkscape"
   width="1464.1207"
   height="664.0929"
   id="svg2"
   version="1.1"
   inkscape:version="0.91 r"
   sodipodi:docname="WheelerPeak - smaller3 - inkscape.svg">
  <defs
     id="defs4" />
  <sodipodi:namedview
     id="base"
     pagecolor="#ffffff"
     bordercolor="#666666"
     borderopacity="1.0"
     inkscape:pageopacity="0.0"
     inkscape:pageshadow="2"
     inkscape:zoom="0.35355339"
     inkscape:cx="705.45669"
     inkscape:cy="75.067407"
     inkscape:document-units="px"
     inkscape:current-layer="layer1"
     showgrid="false"
     inkscape:window-width="1920"
     inkscape:window-height="1028"
     inkscape:window-x="0"
     inkscape:window-y="0"
     inkscape:window-maximized="1"
     fit-margin-top="0"
     fit-margin-left="0"
     fit-margin-right="0"
     fit-margin-bottom="0" />
  <metadata
     id="metadata7">
    <rdf:RDF>
      <cc:Work
         rdf:about="">
        <dc:format>image/svg+xml</dc:format>
        <dc:type
           rdf:resource="http://purl.org/dc/dcmitype/StillImage" />
        <dc:title></dc:title>
      </cc:Work>
    </rdf:RDF>
  </metadata>
  <g
     inkscape:label="Layer 1"
     inkscape:groupmode="layer"
     id="layer1"
     style="display:inline"
     transform="translate(1432.4671,-156.18047)">
    <path
       style="fill:none;stroke:#000000;stroke-width:8;stroke-linecap:butt;stroke-linejoin:miter;stroke-miterlimit:4;stroke-dasharray:none;stroke-opacity:1"
       d="m -1428.3571,815.6479 6.0575,-4.71429 3.8783,-0.71428 6.4637,-7.14286 3.4474,0 16.8058,-17.14286 9.6957,-5 5.8174,0 6.0328,-4.28571 12.4967,-15.71429 1.7237,0 11.2038,-12.85714 6.4638,-2.85714 14.2203,-12.85715 2.3701,-0.71428 18.9604,-20 7.1102,-10 6.4637,-6.42857 15.2977,-19.28572 1.9391,0 8.4029,-10.71428 2.1546,-5.71429 4.5246,-7.85714 3.2319,-2.85715 5.3865,-11.42857 6.4638,-8.57143 2.801,0 2.1546,-8.57142 2.5855,-2.85715 3.0164,-7.85714 5.6019,-5.71429 5.1711,-6.42857 0.4309,-2.85714 6.8947,-7.85714 6.8947,-9.28572 1.7236,-4.28571 7.1102,-5.71429 18.5295,-19.28571 2.3701,-2.85715 1.7236,-5 3.8783,-4.28571 31.0261,-55.71429 11.2039,-20 1.7237,-2.85714 14.0049,-8.57143 16.5903,-20 4.0937,-7.14285 9.0493,-12.85715 5.1711,-10 5.171,-6.42857 3.6628,-7.14286 6.6792,-9.28571 2.801,-3.57143 10.9884,-12.85714 2.3701,-0.71429 7.972,-5.71428 2.8009,-4.28572 9.9112,-5 3.0164,-5 4.7401,-2.14285 3.2319,-3.57143 9.6957,-5.71429 4.0937,-2.14286 13.78938,-1.42857 3.01643,-2.14285 4.30919,-5 1.93913,-2.14286 3.01643,0 0.21546,-2.14286 3.66281,-3.57143 0.64638,0.71429 1.93913,-2.14286 1.72368,-3.57143 3.87827,-4.28571 3.44735,-2.14286 3.44734,-5 6.67924,-9.28571 3.87827,-7.14286 10.98842,-20 3.01643,-2.85714 2.80097,-2.85715 3.23189,-4.28571 3.44735,0 0.86184,-2.14286 3.23189,-0.71428 0.64638,-1.42857 2.80097,-0.71429 3.23189,-2.85714 0.86184,-0.71429 1.50821,-3.57143 2.37005,7.14286 0.86184,0.71429 2.80097,2.14285 3.23189,-2.14285 2.37005,-4.28572 1.0773,-2.85714 1.93913,0 3.23189,2.85714 1.93914,-5 1.29275,-2.14286 1.29276,-0.71428 1.29275,2.14286 1.29276,0 1.50821,2.85714 3.23189,-5 0.86184,2.14286 0.43092,3.57142 1.0773,-2.14285 1.50821,0 2.37005,-5 1.93914,-1.42857 1.93913,1.42857 1.0773,2.85714 0.21546,6.42857 1.93913,6.42857 0.43092,4.28572 0.86184,-3.57143 0.43092,4.28571 1.50821,-4.28571 1.0773,2.85714 0.64637,-1.42857 0.43093,19.28571 1.07729,-2.14285 0.86184,-3.57143 1.29275,7.14286 0.86184,-5.71429 0.64638,9.28571 3.87826,4.28572 1.0773,3.57143 0.64638,-7.14286 1.50822,5 0,3.57143 1.07729,2.14286 0.43092,-6.42858 1.50822,0 0.21546,7.14286 3.44734,3.57143 1.0773,-12.85714 0.86184,-7.14286 0.64638,-2.14286 1.93913,3.57143 1.50822,1.42857 1.07729,5.71429 1.0773,-1.42857 1.72367,6.42857 0.64638,5.71428 0,6.42858 1.72367,6.42857 6.03286,12.85714 0.86184,-6.42857 0.86184,-1.42857 1.29275,0.71428 0.64638,10 2.1546,2.85715 0.86183,-2.85715 0.86184,4.28572 3.44735,-0.71429 4.30919,-4.28571 5.60194,-9.28572 3.44735,-7.85714 7.11015,-2.14286 2.58552,-5 5.17102,-2.85714 4.52464,-7.14286 4.52465,-7.14285 0,-2.85715 1.93913,2.85715 1.29276,-18.57143 1.29275,-4.28572 0.21546,-4.28571 1.93914,-5.71429 0.43091,0 0.64638,1.42857 1.93914,2.14286 0.64638,7.14286 1.29275,1.42857 0.21546,3.57143 1.29276,2.14286 1.07729,4.28571 0.21546,5.71429 1.50822,-3.57143 3.01643,-3.57143 0.86183,0 3.01643,4.28571 2.37006,3.57143 1.93913,8.57143 0.43092,3.57143 1.93913,8.57143 2.58552,10.71428 2.58551,0.71429 3.23189,-6.42857 0.64637,0 2.80097,-5.71429 0.64638,0.71429 1.0773,-2.85715 2.15459,-2.14285 0.86184,1.42857 0.64638,-2.85714 0.64638,0.71428 3.23189,2.85714 1.29275,-1.42857 1.29276,0.71429 1.93913,-3.57143 1.72367,-2.85714 0.43092,-2.14286 0.64638,-1.42857 1.50822,3.57143 1.72367,0 2.80097,2.85714 1.0773,1.42857 0.21546,0 2.37005,4.28572 1.29275,1.42857 0.64638,1.42857 1.50822,0 0.64638,-0.71429 0,-10 1.93913,-5.71428 0.43092,-3.57143 0.21546,-4.28572 1.72367,-2.85714 0.43093,-2.14286 1.07729,1.42858 0.43092,-5.71429 0.86183,-1.42857 0.86185,-9.28572 0.86183,-0.71428 0.21546,-10.71429 2.15458,-7.85714 0,-0.71429 1.93914,-2.85714 1.50821,-2.14286 0.6464,-0.71428 1.07728,4.28571 1.07729,1.42857 2.80097,-2.85714 1.93914,0.71429 1.07729,0.71428 2.58553,6.42857 1.50822,-2.14285 0.43089,0 1.72368,-7.14286 -0.21546,-6.42857 1.93914,-17.85714 1.29275,-6.42858 0.43093,0 1.29275,-9.28571 0.64639,-5.71429 2.15458,-7.85714 2.80096,-2.85714 4.52465,0.71428 6.24832,-0.71428 9.48022,-3.57143 5.17104,2.14286 5.38647,-1.42857 1.07729,-0.71429 3.44735,2.14286 3.2319,5.71428 7.54107,15 4.95557,5.71429 1.50822,0 12.71208,17.14286 6.24833,11.42857 6.46378,7.14285 2.37004,3.57143 2.15461,1.42857 4.09372,3.57143 4.52464,4.28572 1.50822,-1.42857 0.64639,1.42857 4.52464,0 11.41933,15 3.2319,2.14285 5.81739,10 21.76141,17.85715 4.74008,4.28571 14.00486,5.71429 6.03286,-4.28572 6.89471,-3.57143 2.15458,2.14286 2.5855,-2.14286 2.58554,1.42858 1.29275,-1.42858 6.67922,-2.85714 7.54107,0.71429 6.46379,2.14285 6.89472,7.14286 12.71208,15.71429 7.32561,10.71428 5.3865,5.71429 15.72851,19.28571 4.74011,4.28572 19.82226,20 15.08215,13.57143 10.12658,10.71428 9.91115,7.14286 7.11015,5 5.60193,5.71428 1.50821,-1.42857 0,2.85715 12.28119,12.85714 36.19716,39.28571"
       id="path3209"
       inkscape:connector-curvature="0"
       sodipodi:nodetypes="cccccccccccccccccccccccccccccccccccccccccccccccccccccccccccccccccccccccccccccccccccccccccccccccccccccccccccccccccccccccccccccccccccccccccccccccccccccccccccccccccccccccccccccccccccccccccccccccccccccccccccccccccccccccccccccccccccccccccccccccccccccccccccccccccccccccccccccccccccccccccccccccccccccccccccccc"
       inkscape:export-filename="/Users/m062446/Pictures/WeddingMagnet2.png"
       inkscape:export-xdpi="122.18"
       inkscape:export-ydpi="122.18" />
    <g
       id="g4047"
       transform="matrix(0.30164302,0,0,1,-1000.6458,0)"
       inkscape:export-filename="/Users/m062446/Pictures/WeddingMagnet2.png"
       inkscape:export-xdpi="122.18"
       inkscape:export-ydpi="122.18">
      <path
         inkscape:connector-curvature="0"
         id="path3998"
         d="m -482.85714,619.50504 -357.14286,30"
         style="fill:none;stroke:#000000;stroke-width:4;stroke-linecap:butt;stroke-linejoin:miter;stroke-miterlimit:4;stroke-dasharray:none;stroke-opacity:1" />
      <path
         sodipodi:nodetypes="cccccccccccccccccccccccccccccccccccccccccccccccccccccccccccccc"
         inkscape:connector-curvature="0"
         id="path4000"
         d="m -484.28571,620.93361 37.85714,-10.71428 132.85714,-8.57143 12.14286,-5 88.57143,-4.28572 62.85714,-11.42857 60,-6.42857 95.7142857,-3.57143 65.0000003,20.71429 -12.857143,15 33.571429,0 41.428568,-30.71429 0,0 20,22.85714 63.57143,10.71429 70,-11.42857 L 310,581.6479 l 3.57143,23.57143 30,-5.71429 33.57143,3.57143 7.85714,-7.14286 54.28571,37.14286 147.14286,12.85714 159.28572,-15 L 1007.8571,599.50504 1110,620.21933 m 0,0 61.4286,-34.28572 55.7143,-57.14286 -10.7143,-1.42857 -61.4286,35.71429 9.2857,-20 -23.5714,18.57143 L 1155,540.93361 1261.4286,478.79075 1335,443.07647 l 52.8571,-20 52.8572,0.71428 63.5714,27.14286 129.2857,-51.42857 16.4286,5 -45,47.14286 76.4286,-42.85715 35,-14.28571 -30,31.42857 -35.7143,33.57143 81.4286,-40.71429 15,12.14286 42.1428,-9.28571 22.8572,1.42857 35.7142,-8.57143 44.2858,-3.57143 -19.2858,15 45,31.42857 75.7143,-12.85714 22.8572,-42.14286 66.4285,0.71429 42.1429,11.42857 32.1429,1.42857 38.5714,13.57143 42.1428,8.57143 -15.7142,-15.71429"
         style="fill:none;stroke:#000000;stroke-width:4;stroke-linecap:butt;stroke-linejoin:bevel;stroke-miterlimit:4;stroke-dasharray:none;stroke-opacity:1" />
    </g>
    <path
       style="fill:none;stroke:#000000;stroke-width:2.19688153;stroke-linecap:butt;stroke-linejoin:bevel;stroke-miterlimit:4;stroke-dasharray:none;stroke-opacity:1"
       d="m -293.29286,463.07647 -21.54594,26.42857 -18.96041,-2.85714 -26.28604,31.42857 -11.41933,-13.57143 -32.96527,62.14286 15.08215,-110.71429 -21.54594,10.71429 -31.24159,44.28571 -22.40776,27.14286 -27.5788,70.71428 -4.30918,58.57143 -11.85026,37.14286 -14.43579,-15.71429 -12.28119,-45.71428 -24.56234,25 -6.24832,-12.85714 -6.24832,13.57142 -1.93915,-9.28571 3.66282,-12.85714 -5.81739,-27.14286 -14.43579,22.85714 -9.91112,-7.14285 -4.09375,26.42857 -8.61836,12.85714 -12.92754,-6.42857 -14.22033,-5.71429 6.67925,-20 -0.43093,-24.28571 -7.11015,-10.71429 -19.82226,34.28572 -4.74011,-21.42857"
       id="path4021"
       inkscape:connector-curvature="0"
       inkscape:export-filename="/Users/m062446/Pictures/WeddingMagnet2.png"
       inkscape:export-xdpi="122.18"
       inkscape:export-ydpi="122.18" />
    <path
       style="fill:none;stroke:#000000;stroke-width:4.39376307;stroke-linecap:butt;stroke-linejoin:miter;stroke-miterlimit:4;stroke-dasharray:none;stroke-opacity:1"
       d="m -292.21557,458.07647 91.35476,125.71428 81.01269,102.85715 86.183724,68.57142 63.775962,62.85715"
       id="path4037"
       inkscape:connector-curvature="0"
       sodipodi:nodetypes="ccccc"
       inkscape:export-filename="/Users/m062446/Pictures/WeddingMagnet2.png"
       inkscape:export-xdpi="122.18"
       inkscape:export-ydpi="122.18" />
    <path
       style="fill:none;stroke:#000000;stroke-width:4.39376307;stroke-linecap:butt;stroke-linejoin:bevel;stroke-miterlimit:4;stroke-dasharray:none;stroke-opacity:1"
       d="m -1431.5643,818.07647 1463.070551,0"
       id="path4039"
       inkscape:connector-curvature="0"
       inkscape:export-filename="/Users/m062446/Pictures/WeddingMagnet2.png"
       inkscape:export-xdpi="122.18"
       inkscape:export-ydpi="122.18"
       sodipodi:nodetypes="cc" />
    <path
       style="fill:#9e9e9e;fill-opacity:1;stroke:#5d5d5d;stroke-width:4;stroke-linejoin:miter;stroke-miterlimit:2;stroke-dasharray:none;stroke-opacity:1"
       d="m 192.23354,481.62877 c 1.96914,-3.3335 4.74796,-6.06092 6.17513,-6.06092 1.42718,0 2.59487,-0.99902 2.59487,-2.22005 0,-3.88785 6.62788,-16.75392 11.99024,-23.27551 2.85029,-3.46648 8.8189,-11.49232 13.26357,-17.83523 4.44467,-6.34291 13.75135,-17.39598 20.68151,-24.56241 14.80031,-15.3049 19.46224,-22.39227 45.81577,-69.65201 15.69922,-28.15338 21.16662,-36.25204 26.36296,-39.05046 7.89378,-4.25107 17.25656,-15.19423 30.40434,-35.53636 28.93421,-44.76675 32.23193,-49.0996 46.22972,-60.7409 7.89441,-6.56541 16.13244,-13.50071 18.30673,-15.41179 10.80096,-9.49338 24.1299,-16.78134 30.69141,-16.78134 4.8337,0 8.39663,-1.54529 11.6454,-5.05077 2.5745,-2.77792 5.71306,-5.05076 6.9746,-5.05076 1.26154,0 2.30107,-0.68185 2.31006,-1.51523 0.008,-0.83337 4.97241,-6.9113 11.02983,-13.5065 6.0574,-6.5952 13.90332,-17.50485 17.43538,-24.24366 9.00817,-17.1867 15.0242,-24.739679 24.43955,-30.683333 5.86108,-3.699943 8.7685,-4.530231 10.34456,-2.954159 3.23482,3.234801 9.00048,2.664045 11.10665,-1.099472 1.01316,-1.810422 5.96104,-7.152762 7.50322,-6.633771 1.54218,0.51899 1.05433,3.785831 2.40795,2.021552 1.75682,-2.289808 2.4795,-2.45097 2.52539,-0.563169 0.0353,1.454537 0.97338,2.082737 2.08455,1.395997 1.11116,-0.68674 2.0203,-0.285825 2.0203,0.89092 0,3.838339 3.03208,2.256746 6.54937,-3.416301 l 3.44464,-5.555839 0.0663,5.050762 c 0.0364,2.77792 1.42432,7.654811 3.08422,10.837537 1.6599,3.182726 3.01801,8.864834 3.01801,12.626906 -6e-5,3.76207 0.83902,6.84013 1.86452,6.84013 1.02553,0 5.09766,5.16874 9.04917,11.48608 8.45205,13.51237 15.35022,16.46248 15.35022,6.56476 0,-3.59719 0.84196,-5.64711 2.0203,-4.91885 1.11117,0.68674 2.02031,4.49054 2.02031,8.45289 0,7.86577 9.6415,31.46583 12.20717,29.88017 0.87441,-0.54043 1.94266,0.0758 2.37386,1.36939 0.49681,1.49047 2.78198,1.85052 6.23864,0.98294 3.85112,-0.96656 7.2916,-4.62391 11.70326,-12.44091 3.43672,-6.08954 7.14087,-11.07189 8.23143,-11.07189 2.62862,0 12.4946,-9.95972 15.58368,-15.73176 1.34945,-2.52145 3.22181,-4.10965 4.16078,-3.52933 2.59411,1.60325 4.14314,-4.17625 4.22254,-15.75441 0.0691,-10.073083 0.17334,-10.263216 2.95886,-5.390602 1.588,2.777922 2.9195,6.641752 2.95886,8.586292 0.079,3.90184 6.13251,4.99869 6.13251,1.11117 0,-1.57606 0.68977,-1.73459 1.97129,-0.45306 1.08422,1.08421 3.46461,9.22099 5.28975,18.08173 2.95413,14.34176 5.17242,19.00848 9.08382,19.10995 0.65591,0.017 3.38332,-2.92376 6.06091,-6.53506 2.67759,-3.61129 6.68663,-6.86132 8.90896,-7.22228 2.22234,-0.36096 5.50467,-2.53438 7.29409,-4.82982 3.2292,-4.14239 3.28168,-4.12576 7.03565,2.22921 5.80785,9.83191 9.62728,7.3622 11.62433,-7.5165 0.94074,-7.00874 2.2885,-12.16509 2.99502,-11.45856 1.57509,1.57508 6.11036,-21.392061 6.28168,-31.811199 0.099,-6.021036 0.90338,-7.576144 3.91876,-7.576144 2.0868,0 5.09695,1.962076 6.68923,4.360166 2.86187,4.310199 2.93415,4.277761 6.30734,-2.830708 1.87676,-3.954982 3.42904,-11.144595 3.44953,-15.97692 0.0374,-8.823917 5.14191,-41.080196 6.96863,-44.035914 0.53726,-0.869297 4.40827,-2.060507 8.60224,-2.647133 4.19397,-0.5866256 8.53454,-1.2715334 9.6457,-1.5220173 1.11117,-0.2504837 4.84833,-0.3477638 8.30481,-0.2161783 5.52901,0.2104847 7.05814,1.6906876 12.7195,12.3124996 3.53923,6.64029 7.6396,12.776966 9.1119,13.637059 1.47232,0.860094 7.56731,8.826111 13.54449,17.702258 12.09326,17.958648 27.14199,33.576859 30.94604,32.117106 1.36635,-0.524314 5.03167,2.722605 8.14516,7.215376 3.1135,4.492772 6.29277,8.168677 7.06505,8.168677 0.77228,0 2.6844,2.392152 4.24913,5.315892 3.6975,6.90882 29.22607,27.73959 39.00063,31.82366 7.00141,2.92537 8.0189,2.90471 12.85036,-0.26098 2.88578,-1.89084 7.596,-3.50642 10.46712,-3.59017 2.87111,-0.0837 7.1188,-1.19726 9.43929,-2.47447 4.38982,-2.4162 12.05227,-1.4253 16.6064,2.14751 1.45351,1.1403 9.15834,10.78222 17.12186,21.42648 17.58715,23.50756 70.52565,78.0908 87.58045,90.30152 13.0821,9.36638 28.4465,26.29136 26.0196,28.66245 -0.7906,0.77247 -4.7633,-2.3282 -8.8282,-6.89039 -4.0648,-4.56219 -9.6563,-8.97276 -12.4254,-9.80125 -2.7692,-0.8285 -8.4497,-4.18892 -12.6234,-7.46763 -6.5603,-5.15348 -9.0163,-5.87858 -18.125,-5.35104 l -10.5365,0.61023 -3.4858,20.93741 c -1.9173,11.51558 -3.7615,21.13514 -4.0984,21.37683 -0.3369,0.24169 -4.8499,2.75665 -10.0289,5.58881 l -9.4165,5.14936 -5.9892,-14.25489 c -5.5834,-13.28892 -5.7966,-14.71601 -3.1463,-21.0593 1.5637,-3.74241 2.3525,-7.59827 1.7528,-8.56854 -1.5123,-2.44697 -15.10192,1.57107 -20.99711,6.20824 -2.66749,2.09825 -6.82643,3.81498 -9.24212,3.81498 -2.4157,0 -6.15692,1.3348 -8.31384,2.96621 -4.89999,3.70617 -6.95214,3.8444 -6.95214,0.46831 0,-1.44452 -1.09545,-3.72185 -2.43432,-5.06072 -1.89889,-1.89889 -3.8885,-0.0992 -9.04574,8.18223 -3.63628,5.83911 -14.46012,30.42172 -14.4498,29.31055 0.0101,-1.11117 10.47588,-31.3714 13.6536,-41.92749 3.17774,-10.5561 5.27461,-20.02577 4.65973,-21.04372 -1.37,-2.26808 -8.66181,6.51109 -16.63945,20.03356 -6.04346,10.24394 -22.17217,48.19124 -18.10164,36.51452 2.36923,-6.79639 14.26951,-51.66681 8.99938,-51.66681 -1.40741,0 -10.79304,11.00576 -20.85695,24.45721 l -18.29802,24.45721 -6.67487,-9.54132 c -3.67119,-5.24772 -7.58402,-10.73681 -8.69519,-12.19799 -1.11116,-1.46117 -6.16585,-3.25037 -11.23261,-3.976 -9.0718,-1.2992 -9.3291,-1.17679 -16.86979,8.0256 -21.85653,26.67304 -65.63533,108.59279 -66.40761,124.26325 -0.34933,7.0881 0.29072,9.16762 2.99343,9.72575 2.45576,0.50713 5.16927,-2.64541 9.49929,-11.03614 7.68055,-14.88347 7.77526,-10.87712 0.32684,13.82567 -6.70466,22.23611 -21.44281,50.94848 -25.06586,48.83249 -1.2871,-0.75171 -7.51782,-4.84497 -13.84606,-9.09614 -6.32824,-4.25116 -12.65899,-7.72938 -14.06832,-7.72938 -1.40932,0 -20.77837,7.2139 -43.04233,16.0309 -22.26397,8.81699 -50.20654,18.98525 -62.09463,22.59612 l -21.61469,6.5652 -21.44607,-5.98305 -21.44606,-5.98305 -8.03235,-18.04034 c -9.15889,-20.57052 -9.51101,-21.09119 -11.78054,-17.41901 -0.91797,1.48529 -5.41422,2.88215 -9.99168,3.10414 l -8.32267,0.40362 0,-9.72864 c 0,-12.09599 -3.05159,-12.47813 -8.12138,-1.017 -3.08103,6.96518 -5.83862,9.64138 -13.75549,13.34945 l -9.90194,4.63781 -8.25709,-4.75218 c -7.20223,-4.14508 -8.59921,-6.15395 -10.93514,-15.72497 -1.47295,-6.03505 -3.65708,-11.29914 -4.85365,-11.69799 -1.19654,-0.39885 -4.79093,6.12496 -7.98749,14.49735 -3.35591,8.78972 -6.9903,15.22255 -8.60038,15.22255 -2.05445,0 -2.46261,-1.73661 -1.55069,-6.59759 1.0867,-5.79272 0.0816,-7.91919 -8.23923,-17.43113 l -9.47692,-10.83356 -15.48677,1.29156 c -17.97078,1.4987 -31.43401,5.6515 -44.69707,13.78705 -5.37728,3.29843 -14.93052,6.72899 -22.22336,7.98042 -7.03539,1.20726 -14.15533,3.36117 -15.82208,4.78647 -1.66675,1.42529 -11.4646,4.40718 -21.77301,6.62638 -11.89776,2.56136 -26.12047,10.83212 -30.25381,13.95601 -4.41502,3.3368 -17.12135,4.25977 -49.99858,13.39769 -26.66803,7.41213 -49.22058,13.46901 -50.11678,13.45972 -0.89619,-0.009 -0.0183,-2.74433 1.95083,-6.07783 z"
       id="path4089"
       inkscape:connector-curvature="0"
       sodipodi:nodetypes="cssssssssssssscssssssscsssccscssssscssssssscsssscsssssssssssssssssssssssscsssscsssscssscsccsssssscsssssscssssssssssssscccssscssscssssssscsssssssccc"
       transform="translate(-1436.8571,156.93361)"
       inkscape:export-filename="/Users/m062446/Pictures/WeddingMagnet2.png"
       inkscape:export-xdpi="122.18"
       inkscape:export-ydpi="122.18" />
    <path
       style="fill:#5e7a56;fill-opacity:1;stroke:#4e4e4e;stroke-width:5.71428585;stroke-linejoin:miter;stroke-miterlimit:4;stroke-dasharray:none;stroke-opacity:1"
       d="m 921.53568,537.66669 -6.11169,-6.6581 -6.01371,-22.42417 c -4.33563,-16.16687 -6.3649,-22.63495 -7.27228,-23.17954 -1.0732,-0.64412 -2.95968,1.01449 -12.80876,11.26155 l -11.55019,12.01692 -2.81169,-5.76692 c -3.52399,-7.22786 -4.52025,-7.38884 -7.23023,-1.16825 -3.40994,7.8273 -4.32674,4.00951 -1.42992,-5.95451 l 1.72267,-5.92533 -2.95983,-13.8466 c -2.76493,-12.93483 -3.67966,-15.34544 -5.41585,-14.27242 -0.28365,0.1753 -3.35002,4.84393 -6.81416,10.37472 -3.46414,5.5308 -6.57155,10.22479 -6.90536,10.43109 -0.3338,0.2063 -2.3957,-0.94636 -4.582,-2.56146 -2.18629,-1.61512 -4.51783,-2.83205 -5.18119,-2.70429 -0.98773,0.19022 -1.57695,2.62359 -3.25414,13.43906 l -2.04802,13.20678 -3.95604,5.84951 -3.95605,5.8495 -6.86491,-3.41891 c -3.77571,-1.88041 -9.19528,-4.3224 -12.04349,-5.42664 -2.84822,-1.10425 -5.17858,-2.37379 -5.17858,-2.82119 0,-0.4474 1.30955,-4.65555 2.9101,-9.35144 l 2.9101,-8.53797 -0.28531,-12.88304 -0.2853,-12.88303 -3.74676,-5.55247 c -2.51529,-3.72749 -4.13293,-5.47809 -4.92167,-5.32619 -0.67288,0.12959 -4.9989,6.84757 -10.12439,15.72242 l -8.94949,15.49615 -1.88564,-8.53985 -1.88565,-8.53985 9.15539,-16.96135 9.1554,-16.96136 8.26233,-28.04294 c 4.54428,-15.42363 1.11946,-19.43916 1.11946,-19.43916 0.84555,6.47946 0.0926,2.55676 -0.66732,2.15008 -3.28138,-1.75614 2.5933,-15.44219 -3.60981,-3.41798 -3.29337,6.38393 -6.59439,12.57143 -7.3356,13.75 l -1.34766,2.14286 -3.92289,5 c -5.03532,6.41785 5.6185,-16.07143 3.99349,-16.07143 -1.17673,0 -1.43658,-0.30027 -1.08174,-1.25 0.25687,-0.6875 7.41572,-14.75 15.90856,-31.25 18.04942,-35.06664 33.01564,-59.97469 45.38629,-75.53572 l 7.80781,-9.82143 6.54158,0.0109 c 3.59787,0.006 7.00303,0.30293 7.56702,0.65981 0.564,0.35688 5.06939,6.37875 10.01197,13.38192 5.98558,8.48099 9.45958,12.78561 10.40313,12.89045 1.09581,0.12176 5.68797,-5.50347 20.27867,-24.84066 l 18.86206,-24.99806 1.57654,1.48108 1.57654,1.48108 -6.69807,23.31157 c -6.55906,22.82782 -6.84627,24.40982 -4.44208,24.46808 0.24824,0.006 5.68027,-9.71228 12.07118,-21.59621 10.22894,-19.02076 16.40605,-29.27438 16.40605,-27.23304 0,1.14318 -7.62646,26.55904 -12.40483,41.34019 -4.06723,12.58137 -4.47622,14.34039 -3.42811,14.74399 0.65454,0.25206 1.5476,0.0914 1.98455,-0.35714 0.43697,-0.44848 5.31638,-8.369 10.84315,-17.60114 5.52676,-9.23214 10.48553,-17.37148 11.01946,-18.08742 0.87988,-1.17979 1.12602,-0.86204 2.62812,3.39286 1.24842,3.53632 1.98945,4.69456 3.00349,4.69456 0.74039,0 3.94723,-1.92857 7.12631,-4.28571 6.21077,-4.60501 6.09603,-4.56411 10.158,-3.6212 2.61263,0.60647 2.92447,0.46465 8.20449,-3.73119 4.18745,-3.32761 6.58797,-4.66645 10.12583,-5.64747 2.55049,-0.70722 4.85449,-1.28586 5.12019,-1.28586 0.2656,0 -0.6273,2.8125 -1.9843,6.25 l -2.4672,6.25 6.994,16.25 c 5.3258,12.37407 7.2935,16.25 8.2495,16.25 2.1179,0 23.5064,-12.36595 24.0913,-13.92857 0.294,-0.78571 1.9338,-10.1875 3.6439,-20.89286 l 3.1093,-19.46428 8.2414,0.0502 c 4.5328,0.0276 8.7764,0.26869 9.4303,0.53572 0.6538,0.26703 3.9318,2.94921 7.2844,5.9604 5.9526,5.3465 6.2039,5.4865 10.7129,5.96938 l 4.6174,0.49447 5.8689,6.88777 c 4.2998,5.04638 7.5151,7.98817 12.0268,11.00384 3.3868,2.26384 6.6259,4.03001 7.198,3.92482 0.5721,-0.10518 1.2149,-0.92095 1.4286,-1.81282 0.3373,-1.40829 2.1265,0.27189 13.6027,12.77452 7.2679,7.91785 13.317,14.66279 13.4426,14.98876 0.387,1.00469 -17.8665,22.79518 -19.0837,22.78155 -0.6295,-0.007 -4.1982,-0.48342 -7.9303,-1.05861 -11.0087,-1.69664 -8.9335,-2.94693 -22.821,13.75 -6.7802,8.15178 -12.5352,14.88402 -12.789,14.96053 -0.2538,0.0765 -2.6734,-2.57528 -5.377,-5.89286 -2.7035,-3.31758 -5.4365,-6.03196 -6.0732,-6.03196 -0.7945,0 -5.6131,8.4092 -15.3608,26.807 -7.8117,14.74384 -14.3334,26.67666 -14.4927,26.51738 -0.1593,-0.15928 2.7876,-22.84391 6.5488,-50.41028 3.7611,-27.56637 6.6486,-50.42777 6.4166,-50.8031 -0.793,-1.28318 -2.5077,-0.67765 -13.0249,4.59979 l -10.5268,5.28222 -15.6165,22.16249 c -8.5891,12.18937 -20.56446,28.159 -26.61198,35.48808 -6.04753,7.32907 -11.31183,13.91666 -11.69846,14.63909 -0.38664,0.72242 -6.78335,16.89766 -14.21492,35.94498 l -13.51195,34.63147 -2.21102,29.53473 -2.21102,29.53472 -5.33174,16.703 c -2.93246,9.18665 -5.45662,16.82787 -5.60924,16.98049 -0.15262,0.15263 -3.02776,-2.71864 -6.38919,-6.38059 l 0,0 z"
       id="path4091"
       inkscape:connector-curvature="0"
       transform="translate(-1436.8571,156.93361)"
       sodipodi:nodetypes="ccssscssscscscscscccsssscccssscccccssssscssssscssssscccscsssccsssssssssscsscscscsscscccsccssccsssscscsscscccscccc"
       inkscape:export-filename="/Users/m062446/Pictures/WeddingMagnet2.png"
       inkscape:export-xdpi="122.18"
       inkscape:export-ydpi="122.18" />
    <path
       style="fill:#387f24;fill-opacity:1;stroke:#3a3a3a;stroke-width:6;stroke-linecap:butt;stroke-linejoin:miter;stroke-miterlimit:4;stroke-dasharray:none;stroke-opacity:1"
       d="m 52.102278,626.46315 c 8.401365,-0.0423 64.388402,-52.8934 77.428502,-64.59873 12.8676,-11.55048 63.75594,-76.76379 57.21844,-71.5619 -19.03005,15.14221 33.58756,-6.6279 58.22626,-13.49404 24.63869,-6.86614 45.08125,-12.3086 45.42789,-12.09436 0.34665,0.21424 2.95601,-1.75655 5.79858,-4.37954 2.84257,-2.62299 6.1326,-5.16764 7.31117,-5.65477 1.17857,-0.48714 10.45616,-2.62182 20.61686,-4.74372 l 18.474,-3.85801 1.84228,-2.56171 1.84228,-2.5617 12.898,-1.96901 12.89801,-1.96902 10,-5.91447 c 14.79272,-8.74913 22.62731,-11.38841 40.71428,-13.71566 l 14.28572,-1.83814 9.36983,9.77395 9.36984,9.77395 -1.77505,7.07887 c -0.97627,3.89337 -1.58671,7.56963 -1.35654,8.16947 0.32283,0.84128 1.60753,1.08811 5.6195,1.07968 2.86055,-0.006 5.56745,-0.24709 6.01535,-0.53572 0.44791,-0.28863 3.238,-6.4712 6.20022,-13.73906 2.96221,-7.26786 5.55149,-12.73214 5.75396,-12.14286 0.20247,0.58929 1.33697,4.73887 2.5211,9.22131 1.18414,4.48243 2.40696,8.39977 2.71738,8.7052 1.39225,1.36983 18.7925,10.64471 19.96685,10.64296 1.70396,-0.003 21.75552,-10.85861 22.52022,-12.19261 0.3215,-0.56084 1.52339,-3.109 2.67087,-5.66257 l 2.08634,-4.64286 0.0608,6.42857 c 0.0794,8.3949 0.65748,11.78572 2.00937,11.78572 0.5847,0 2.91071,-1.12237 5.1689,-2.49414 l 4.10579,-2.49414 4.13518,1.42271 c 5.52358,1.90039 6.65318,1.81949 7.55053,-0.54071 0.69359,-1.82428 1.27087,-0.7739 8.14566,14.82143 4.06955,9.23166 7.82389,17.03452 8.34297,17.33968 0.5191,0.30517 10.8248,3.40071 22.90159,6.87899 l 21.95778,6.32414 25.54222,-8.01789 c 21.23316,-6.66525 31.92884,-10.5647 63.39936,-23.11425 l 37.85714,-15.09635 14.72069,9.7874 14.7207,9.78738 2.70601,12.34073 c 1.48831,6.7874 2.89971,12.33555 3.13645,12.32922 0.23674,-0.006 3.90639,-6.04276 8.15476,-13.41431 9.57451,-16.61315 11.76575,-20.14561 12.49663,-20.14561 0.3165,0 1.55847,1.39459 2.75991,3.09909 l 2.18444,3.0991 0.33657,12.07948 0.33657,12.07947 -3.11629,9.28572 c -1.71396,5.10714 -3.02761,9.87421 -2.91923,10.59348 0.1421,0.94294 4.08133,3.08502 14.1207,7.67857 7.658,3.50394 14.16515,6.37081 14.46034,6.37081 0.29519,0 2.63652,-3.15381 5.20296,-7.00847 l 4.66627,-7.00846 1.89505,-11.85235 1.89504,-11.85235 3.61168,2.43224 c 1.98642,1.33774 4.15461,2.43224 4.81821,2.43224 0.75625,0 3.38917,-3.33215 7.05497,-8.92857 3.21664,-4.91071 6.08941,-8.92857 6.38393,-8.92857 0.29451,0 1.56296,4.75604 2.81876,10.56896 l 2.28328,10.56897 -1.47134,5.30953 c -1.65205,5.96159 -1.8337,9.71294 -0.67357,13.90968 0.73427,2.65617 1.66262,3.8911 2.9451,3.91764 0.29074,0.006 1.45614,-2.03469 2.58978,-4.53489 1.13365,-2.5002 2.38531,-4.74615 2.78147,-4.99098 0.40102,-0.24785 1.78595,1.92503 3.1245,4.90218 1.32232,2.94105 2.67638,5.3477 3.00901,5.34813 0.33264,4.3e-4 5.81881,-5.36709 12.19149,-11.92783 l 11.58672,-11.9286 2.69278,9.60717 c 1.48104,5.28395 4.09103,14.8407 5.79998,21.23721 2.27478,8.51434 3.61726,12.24582 5.0111,13.92857 4.0145,4.84657 14.16522,14.8288 14.84772,14.6013 0.39357,-0.13117 3.40557,-8.41724 6.69342,-18.41348 l 5.97786,-18.17499 2.38729,-30.35714 2.38735,-30.35714 10.36672,-26.42858 c 18.56028,-47.31669 15.51321,-41.12387 27.80164,-56.50434 10.45143,-13.08118 18.11987,-23.44911 34.50827,-46.65545 l 7.8571,-11.12592 8.4423,-4.17687 c 4.6431,-2.29727 8.6295,-3.98946 8.8585,-3.76042 0.4545,0.45447 -0.063,4.66138 -8.0363,65.37964 -5.3545,40.77326 -5.4561,42.12241 -3.1793,42.18957 0.2039,0.006 1.3603,-1.83728 2.5698,-4.09621 13.2197,-24.69065 29.9397,-55.16946 30.2455,-55.13444 0.2119,0.0243 2.2998,2.29848 4.6399,5.0538 2.34,2.75531 4.8146,5.30939 5.4991,5.67573 1.04,0.55653 3.115,-1.53731 12.6178,-12.73237 6.2553,-7.36914 12.262,-14.28236 13.3483,-15.36272 2.2694,-2.2571 2.9875,-2.30792 12.7986,-0.90565 3.8994,0.55733 7.3533,0.85045 7.6755,0.65138 0.7143,-0.44151 13.1238,-15.24318 18.3509,-21.88858 2.0859,-2.65179 4.0302,-4.82143 4.3208,-4.82143 0.2906,0 20.3179,27.24107 44.5051,60.53571 36.8579,50.73651 50.464,68.7739 84.053,111.428 l 40.0763,50.89229 78.7919,62.26597 66.6701,65.29645 -702.60488,1.01015 -744.021081,1.01015 19.192898,-15.95248 z"
       id="path4093"
       inkscape:connector-curvature="0"
       transform="translate(-1436.8571,156.93361)"
       sodipodi:nodetypes="cssscssscccccsscccscsssssccsscssscssssscsscccscssscccscssscccssssscsscscssscssscscccssscccscccccscsccsssccccccc"
       inkscape:export-filename="/Users/m062446/Pictures/WeddingMagnet2.png"
       inkscape:export-xdpi="122.18"
       inkscape:export-ydpi="122.18" />
    <text
       inkscape:transform-center-x="-48.571429"
       transform="matrix(0.99996938,0.00782578,-0.00782578,0.99996938,0,0)"
       sodipodi:linespacing="125%"
       id="text4122"
       y="794.93286"
       x="-653.27368"
       style="font-style:normal;font-weight:normal;font-size:16px;line-height:125%;font-family:Sans;letter-spacing:0px;word-spacing:0px;fill:#4f4f4f;fill-opacity:1;stroke:none"
       xml:space="preserve"
       inkscape:export-filename="/Users/m062446/Pictures/WeddingMagnet2.png"
       inkscape:export-xdpi="122.18"
       inkscape:export-ydpi="122.18"><tspan
         style="font-style:normal;font-variant:normal;font-weight:normal;font-stretch:normal;font-size:120px;font-family:Ubuntu;-inkscape-font-specification:Ubuntu;text-align:center;text-anchor:middle;fill:#4f4f4f;fill-opacity:1"
         id="tspan4128"
         y="794.93286"
         x="-653.27368"
         sodipodi:role="line">Mellissa &amp; Josh</tspan></text>
    <text
       xml:space="preserve"
       style="font-style:normal;font-weight:normal;font-size:16px;line-height:125%;font-family:Sans;letter-spacing:0px;word-spacing:0px;fill:#003296;fill-opacity:1;stroke:none"
       x="-657.84283"
       y="788.37964"
       id="text4114"
       sodipodi:linespacing="125%"
       transform="matrix(0.99996938,0.00782578,-0.00782578,0.99996938,0,0)"
       inkscape:transform-center-x="-48.571429"
       inkscape:export-filename="/Users/m062446/Pictures/WeddingMagnet2.png"
       inkscape:export-xdpi="122.18"
       inkscape:export-ydpi="122.18"><tspan
         sodipodi:role="line"
         x="-657.84283"
         y="788.37964"
         id="tspan4120"
         style="font-style:normal;font-variant:normal;font-weight:normal;font-stretch:normal;font-size:120px;font-family:Ubuntu;-inkscape-font-specification:Ubuntu;text-align:center;text-anchor:middle;fill:#003296;fill-opacity:1">Mellissa &amp; Josh</tspan></text>
    <text
       transform="matrix(0.96958537,-0.24475336,0.24475336,0.96958537,0,0)"
       sodipodi:linespacing="125%"
       id="text4142"
       y="258.36743"
       x="-1121.3348"
       style="font-style:normal;font-weight:normal;font-size:16px;line-height:125%;font-family:Sans;letter-spacing:0px;word-spacing:0px;fill:#565656;fill-opacity:1;stroke:none"
       xml:space="preserve"
       inkscape:export-filename="/Users/m062446/Pictures/WeddingMagnet2.png"
       inkscape:export-xdpi="122.18"
       inkscape:export-ydpi="122.18"><tspan
         style="font-style:normal;font-variant:normal;font-weight:normal;font-stretch:normal;font-size:120px;font-family:Ubuntu;-inkscape-font-specification:Ubuntu;fill:#565656;fill-opacity:1"
         y="258.36743"
         x="-1121.3348"
         id="tspan4144"
         sodipodi:role="line">5.29.16</tspan></text>
    <text
       xml:space="preserve"
       style="font-style:normal;font-weight:normal;font-size:16px;line-height:125%;font-family:Sans;letter-spacing:0px;word-spacing:0px;fill:#ff6e00;fill-opacity:1;stroke:none"
       x="-1125.6838"
       y="251.08141"
       id="text4130"
       sodipodi:linespacing="125%"
       transform="matrix(0.96958537,-0.24475336,0.24475336,0.96958537,0,0)"
       inkscape:export-filename="/Users/m062446/Pictures/WeddingMagnet2.png"
       inkscape:export-xdpi="122.18"
       inkscape:export-ydpi="122.18"><tspan
         sodipodi:role="line"
         id="tspan4132"
         x="-1125.6838"
         y="251.08141"
         style="font-style:normal;font-variant:normal;font-weight:normal;font-stretch:normal;font-size:120px;font-family:Ubuntu;-inkscape-font-specification:Ubuntu;fill:#ff6e00;fill-opacity:1">5.29.16</tspan></text>
  </g>
</svg>
